<?xml version="1.0" standalone="no"?>
<!DOCTYPE svg PUBLIC "-//W3C//DTD SVG 20010904//EN"
 "http://www.w3.org/TR/2001/REC-SVG-20010904/DTD/svg10.dtd">
<svg version="1.0" xmlns="http://www.w3.org/2000/svg"
 width="1254.000000pt" height="1254.000000pt" viewBox="0 0 1254.000000 1254.000000"
 preserveAspectRatio="xMidYMid meet">

<g transform="translate(0.000000,1254.000000) scale(0.100000,-0.100000)"
fill="#000000" stroke="none">
<path d="M6085 9080 c-46 -12 -212 -90 -490 -230 -1202 -609 -1543 -784 -1586
-816 -56 -41 -121 -134 -146 -208 -17 -47 -18 -141 -21 -1331 -2 -903 1 -1300
8 -1347 17 -98 60 -180 133 -252 59 -60 87 -75 677 -373 1050 -531 1359 -683
1418 -698 75 -20 234 -19 303 1 30 9 171 74 313 145 143 71 262 129 267 129 4
0 38 -31 75 -68 160 -160 380 -286 599 -343 106 -28 140 -32 295 -36 203 -6
304 8 467 62 475 159 818 561 899 1053 20 123 13 348 -15 472 -53 235 -172
456 -338 631 -108 113 -218 198 -264 203 l-34 3 -5 864 -5 864 -23 57 c-31 76
-81 139 -139 175 -26 17 -493 254 -1036 527 -755 380 -1007 502 -1064 517 -94
24 -196 24 -288 -1z m928 -649 c859 -433 1050 -531 1042 -539 -3 -3 -413 -211
-912 -463 l-907 -457 -911 455 c-500 250 -912 457 -914 459 -3 3 2 10 10 18
17 16 1609 823 1714 868 28 13 60 17 108 15 67 -3 73 -6 770 -356z m1309 -788
c17 -15 18 -50 18 -711 0 -568 -2 -693 -13 -689 -116 44 -450 57 -607 23 -460
-99 -824 -405 -989 -829 -69 -181 -85 -266 -85 -472 -1 -164 2 -190 27 -289
15 -60 48 -157 72 -215 25 -59 45 -109 45 -113 0 -3 -42 -25 -92 -49 -51 -24
-135 -65 -186 -91 -75 -38 -98 -46 -113 -37 -19 9 -19 41 -19 1235 l0 1226 55
61 55 60 897 453 c494 249 902 453 907 453 5 1 18 -6 28 -16z m-3254 -438
c841 -421 890 -447 950 -504 l62 -60 0 -1225 c0 -1114 -1 -1226 -16 -1234 -12
-7 -252 109 -933 451 -504 253 -926 469 -938 480 -49 44 -48 14 -48 1298 0
1002 3 1209 14 1223 7 9 15 16 18 16 2 0 403 -200 891 -445z m3115 -1222 c260
-50 506 -213 654 -433 64 -96 84 -135 122 -244 132 -375 37 -792 -246 -1072
-129 -127 -296 -222 -481 -271 -127 -34 -351 -39 -476 -9 -419 98 -718 402
-807 821 -8 33 -13 119 -13 190 0 180 28 303 107 460 108 218 265 372 482 476
209 100 427 127 658 82z"/>
<path d="M7342 5090 c-94 -43 -105 -186 -17 -240 31 -19 52 -20 646 -22 695
-2 663 -5 700 75 23 53 23 71 -1 125 -15 33 -29 47 -62 62 -41 19 -70 20 -633
20 -563 0 -592 -1 -633 -20z"/>
</g>
</svg>
