<?xml version="1.0" standalone="no"?>
<!DOCTYPE svg PUBLIC "-//W3C//DTD SVG 20010904//EN"
 "http://www.w3.org/TR/2001/REC-SVG-20010904/DTD/svg10.dtd">
<svg version="1.0" xmlns="http://www.w3.org/2000/svg"
 width="1254.000000pt" height="1254.000000pt" viewBox="0 0 1254.000000 1254.000000"
 preserveAspectRatio="xMidYMid meet">

<g transform="translate(0.000000,1254.000000) scale(0.100000,-0.100000)"
fill="#000000" stroke="none">
<path d="M5550 8743 c-27 -10 -65 -37 -96 -68 -75 -75 -84 -112 -84 -347 l0
-188 -487 0 c-452 0 -491 -2 -529 -19 -49 -22 -111 -92 -124 -140 -5 -20 -10
-141 -10 -269 0 -253 4 -279 58 -335 49 -51 89 -69 168 -76 l75 -6 -1 -1511
c0 -992 3 -1537 10 -1585 26 -185 155 -343 336 -411 l59 -23 1305 -3 c942 -2
1324 0 1373 9 144 24 286 126 354 255 67 126 63 19 63 1726 l0 1548 63 0 c109
0 190 53 232 153 12 29 15 82 15 269 0 213 -2 237 -21 278 -25 56 -53 86 -104
113 -39 21 -52 22 -535 27 l-495 5 -2 199 c-2 184 -4 202 -26 250 -30 64 -77
112 -142 142 l-50 24 -680 -1 c-593 0 -686 -3 -725 -16z m1350 -443 l0 -160
-630 0 -630 0 0 160 0 160 630 0 630 0 0 -160z m1158 -582 l3 -148 -1786 0
-1785 0 0 145 0 144 83 3 c45 2 847 3 1782 3 l1700 0 3 -147z m-310 -1971 l-3
-1554 -30 -48 c-22 -36 -45 -57 -84 -77 l-54 -28 -1317 2 -1316 3 -42 28 c-23
15 -54 46 -69 69 l-28 42 -3 1558 -2 1558 1475 0 1475 0 -2 -1553z"/>
<path d="M5444 6762 c-79 -37 -74 33 -74 -1066 0 -1060 -2 -1019 55 -1064 38
-30 121 -31 159 -1 59 46 56 -10 56 1059 0 876 -2 986 -16 1015 -31 65 -109
90 -180 57z"/>
<path d="M6213 6764 c-18 -9 -42 -31 -53 -49 -20 -32 -20 -49 -20 -1019 0
-1076 -3 -1019 56 -1065 37 -29 115 -29 156 0 60 43 58 -1 58 1061 0 907 -1
975 -18 1007 -34 69 -115 98 -179 65z"/>
<path d="M6981 6763 c-19 -10 -44 -31 -55 -46 -21 -28 -21 -33 -21 -1020 0
-930 1 -994 18 -1024 22 -42 64 -63 123 -63 41 0 51 5 85 39 l39 39 1 333 c1
184 1 633 0 998 -3 718 -1 701 -56 737 -38 25 -95 28 -134 7z"/>
</g>
</svg>
